<?xml version="1.0" encoding="UTF-8"?>
<!DOCTYPE svg PUBLIC "-//W3C//DTD SVG 1.1//EN" "http://www.w3.org/Graphics/SVG/1.1/DTD/svg11.dtd">
<!-- Creator: CorelDRAW -->
<svg xmlns="http://www.w3.org/2000/svg" xml:space="preserve" width="158.494mm" height="59.2979mm" version="1.1" style="shape-rendering:geometricPrecision; text-rendering:geometricPrecision; image-rendering:optimizeQuality; fill-rule:evenodd; clip-rule:evenodd"
viewBox="0 0 15848.3 5929.39"
 xmlns:xlink="http://www.w3.org/1999/xlink"
 xmlns:xodm="http://www.corel.com/coreldraw/odm/2003">
 <defs>
  <style type="text/css">
   <![CDATA[
    .fil1 {fill:#E6232A}
    .fil2 {fill:#ADCE24}
    .fil0 {fill:#006FB8}
    .fil3 {fill:black;fill-rule:nonzero}
   ]]>
  </style>
 </defs>
 <g id="Layer_x0020_1">
  <metadata id="CorelCorpID_0Corel-Layer"/>
  <g id="_105553280524224">
   <path class="fil0" d="M1744.51 1509.29l-1744.51 467.55 2996.41 2313.88c141.02,109.38 378.31,166.27 527.2,126.37l1735.48 -464.52 -2987.35 -2316.92c-141.06,-109.41 -378.31,-166.27 -527.23,-126.36z"/>
   <path class="fil1" d="M3411.17 1806.08l0.1 -1806.08 1588.69 1230.31c141.07,109.23 258.52,322.43 258.52,476.53l0.49 1796.58 -1589.29 -1220.77c-141.56,-108.74 -258.51,-322.4 -258.51,-476.57z"/>
   <path class="fil2" d="M0.02 4232.06l0.1 -1806.08 1588.69 1230.31c141.07,109.23 258.51,322.43 258.51,476.53l0.49 1796.58 -1589.28 -1220.77c-141.56,-108.75 -258.51,-322.4 -258.51,-476.57z"/>
   <polygon class="fil3" points="8558.64,1624.51 9009.34,1624.51 9009.34,4367.94 8656.61,4367.94 7363.29,2506.33 7363.29,4367.94 6912.58,4367.94 6912.58,1624.51 7265.3,1624.51 8558.64,3486.13 "/>
   <path class="fil3" d="M10455.51 4418.88c-287.4,0 -531.69,-99.28 -732.88,-297.85 -201.19,-198.58 -301.78,-442.87 -301.78,-732.89 0,-290.02 100.59,-534.31 301.78,-732.89 201.19,-198.57 445.48,-297.85 732.88,-297.85 290.02,0 534.97,99.28 734.85,297.85 199.88,198.58 299.81,442.87 299.81,732.89 0,290.02 -99.93,534.31 -299.81,732.89 -199.88,198.57 -444.83,297.85 -734.85,297.85zm-435.03 -587.87c117.58,117.57 262.59,176.36 435.03,176.36 172.45,0 317.46,-58.79 435.03,-176.36 117.57,-117.58 176.37,-265.2 176.37,-442.87 0,-177.67 -58.8,-325.29 -176.37,-442.87 -117.57,-117.57 -262.58,-176.36 -435.03,-176.36 -172.44,0 -317.45,58.79 -435.03,176.36 -117.57,117.58 -176.36,265.2 -176.36,442.87 0,177.67 58.79,325.29 176.36,442.87z"/>
   <polygon class="fil3" points="12262.25,3968.18 13214.62,3968.18 13214.62,4367.94 11686.13,4367.94 11686.13,4085.76 12603.22,2808.1 11725.33,2808.1 11725.33,2408.35 13175.42,2408.35 13175.42,2690.53 "/>
   <polygon class="fil3" points="14076.83,3968.18 15029.19,3968.18 15029.19,4367.94 13500.71,4367.94 13500.71,4085.76 14417.8,2808.1 13539.9,2808.1 13539.9,2408.35 14990,2408.35 14990,2690.53 "/>
   <polygon class="fil3" points="15425.03,4367.94 15425.03,1506.94 15848.3,1506.94 15848.3,4367.94 "/>
  </g>
 </g>
</svg>
