<?xml version="1.0" encoding="UTF-8"?>
<!DOCTYPE svg PUBLIC "-//W3C//DTD SVG 1.1//EN" "http://www.w3.org/Graphics/SVG/1.1/DTD/svg11.dtd">
<!-- Creator: CorelDRAW -->
<svg xmlns="http://www.w3.org/2000/svg" xml:space="preserve" width="52.5945mm" height="59.2979mm" version="1.1" style="shape-rendering:geometricPrecision; text-rendering:geometricPrecision; image-rendering:optimizeQuality; fill-rule:evenodd; clip-rule:evenodd"
viewBox="0 0 1745.18 1967.61"
 xmlns:xlink="http://www.w3.org/1999/xlink"
 xmlns:xodm="http://www.corel.com/coreldraw/odm/2003">
 <defs>
  <style type="text/css">
   <![CDATA[
    .fil1 {fill:#E6232A}
    .fil2 {fill:#ADCE24}
    .fil0 {fill:#006FB8}
   ]]>
  </style>
 </defs>
 <g id="Layer_x0020_1">
  <metadata id="CorelCorpID_0Corel-Layer"/>
  <path class="fil0" d="M578.9 500.84l-578.9 155.15 994.33 767.84c46.8,36.3 125.54,55.17 174.95,41.94l575.9 -154.15 -991.32 -768.84c-46.81,-36.31 -125.54,-55.17 -174.96,-41.93z"/>
  <path class="fil1" d="M1131.96 599.33l0.03 -599.33 527.19 408.27c46.81,36.25 85.79,106.99 85.79,158.13l0.16 596.18 -527.39 -405.1c-46.98,-36.09 -85.78,-106.98 -85.78,-158.14z"/>
  <path class="fil2" d="M0.01 1404.37l0.03 -599.33 527.19 408.27c46.81,36.25 85.78,106.99 85.78,158.13l0.16 596.18 -527.39 -405.1c-46.98,-36.09 -85.78,-106.98 -85.78,-158.14z"/>
 </g>
</svg>
